<svg class="header__logo--initial" width="150" height="30" viewBox="0 0 150 30" xmlns="http://www.w3.org/2000/svg">
              <title>Alstom</title>
              <g fill="none" fill-rule="evenodd"><path d="M-10-8h149.925v57.65H-10z"></path>
                <g fill-rule="nonzero"><path d="M104.042 6.315l-1.272 1.35c2.053 3.226 2.338 7.346.433 10.788l.697-.012c2.367-3.844 2.333-8.461.142-12.126zm-5.576.775l.691-.727c-3.45-3.193-9.172-3.121-12.502.303-1.985 2.038-2.922 4.766-2.47 7.336l.694-.021c.039-3.586 2.971-6.541 6.67-6.623 3.78-.104 6.917 2.792 6.997 6.478.102 3.696-2.864 6.75-6.64 6.851a6.942 6.942 0 0 1-4.884-1.819l-.98 1.007a10.438 10.438 0 0 1-.407-15.013c3.334-3.43 8.438-4.211 12.57-2.3l.053.06.532-.592C93.533-1.023 86.595-.155 82.17 4.391c-5.228 5.359-4.988 13.823.514 18.907l.992-1.011c2.173 1.99 4.697 2.988 7.644 2.904 5.945-.157 10.64-4.973 10.49-10.76a10.329 10.329 0 0 0-3.344-7.34z" fill="#DC3223"></path><path d="M30.554 2.539h-4.999v20.266h14.158v-3.937h-9.16V2.538zm-22.258 0L.54 22.805h4.839c.88-3.011 4.718-5.286 8.292-5.605l-.737-1.833c-1.503-.197-3.71.043-5.05.624l3.27-8.574 6.339 15.388h4.83L13.977 2.54h-5.68zM58.642 6.46h6.661v16.344h5.122V6.461h6.693V2.54H58.643V6.46zm66.295-3.922l-5.852 7.702-5.768-7.702h-4.493v20.266h5.12V10.422l4.796 6.55h.731l4.788-6.55v12.383h5.127V2.539h-4.449zM46.361 7.738c0-1.628 3.696-3.048 9.46-.977l.335-4.001c-.912-.403-3.497-1.08-5.467-1.08-4.199 0-8.959 1.547-8.959 6.583 0 7.551 11.27 4.967 10.947 9.09-.125 1.6-2.51 1.988-4.526 1.988-2.29 0-4.35-.456-5.743-1.118l-.478 4.347c1.86.6 4.275.896 6.221.896 4.645 0 9.181-1.464 9.2-6.881.009-7.24-10.99-5.133-10.99-8.847z" fill="#1E3246"></path></g></g>
            </svg>