<svg xmlns="http://www.w3.org/2000/svg" xmlns:xlink="http://www.w3.org/1999/xlink" width="122.554" height="36" viewBox="0 0 122.554 36">
  <defs>
    <clipPath id="clip-path">
      <rect id="Rectangle_1982" data-name="Rectangle 1982" width="122.554" height="36" fill="none"/>
    </clipPath>
  </defs>
  <g id="Group_1840" data-name="Group 1840" clip-path="url(#clip-path)">
    <path id="Path_2740" data-name="Path 2740" d="M119.17,6.314h.564a.911.911,0,0,0,.552-.119.389.389,0,0,0,.148-.317.381.381,0,0,0-.071-.227.413.413,0,0,0-.2-.15,1.48,1.48,0,0,0-.466-.05h-.529Zm-.464,1.62V5.059h.989a2.4,2.4,0,0,1,.736.08.712.712,0,0,1,.362.278.733.733,0,0,1,.134.421.758.758,0,0,1-.226.547.891.891,0,0,1-.6.263.782.782,0,0,1,.245.153,3.244,3.244,0,0,1,.426.57l.351.563h-.564l-.256-.452a2.318,2.318,0,0,0-.488-.671.58.58,0,0,0-.371-.1h-.274V7.934Zm1.175-3.71a2.232,2.232,0,1,0,2.229,2.233,2.234,2.234,0,0,0-2.229-2.233m0-.443A2.675,2.675,0,1,1,117.2,6.457a2.668,2.668,0,0,1,2.678-2.676M95.714,34.7V23.33h25.54V18.273H95.714V15.537c0-3.821,1.548-5.311,5.357-5.311h6.591V5.081h-6.77c-7.943,0-11.213,1.97-11.213,10.057V34.7ZM84.233,1.706,71.523,31.648l6.233,2.645L90.465,4.352ZM72.162,26.812,83.156.913,83.289.6l.254-.6.6.254.316.133,6.8,2.887.315.133.6.255-.253.6-.134.315-.845,1.992c2.021-2.051,5.287-2.787,9.954-2.787h8.069v7.744h-7.891c-3.087,0-4.057.913-4.057,4.012v1.437h25.54v7.655H97.013V36H88.381V15.138a22.959,22.959,0,0,1,.174-2.957L78.833,35.087,78.7,35.4l-.254.6-.6-.254-.315-.134-6.608-2.8C69.365,35.238,66.382,36,62.209,36H36.294l2.832-6.669H61.851c1.922,0,3.226-.05,3.226-2.312V25.307c0-2.129-1.492-2.405-3.192-2.405H46.843c-4.571,0-8.547-.855-9.158-6.395a29.528,29.528,0,0,1,.028-5.785c.683-5.532,4.128-6.94,9.13-6.94H59.428L56.617,10.4H47.491c-2.209,0-2.822.755-2.822,2.821v1.019c0,1.94.889,2.4,2.775,2.4H62.209c6.2,0,9.953,1.628,9.953,8.333ZM32.749,36H12.36C4.125,36,0,34,0,24.842v-9.9C0,5.785,4.134,3.782,12.36,3.782H30.628L27.778,10.5H12.684c-3.51,0-5.043.6-5.043,4.812v9.258c0,4.013,1.174,4.765,5.09,4.765H35.579Z" transform="translate(0 0)" fill="#f26c43" fill-rule="evenodd"/>
    <path id="Path_2741" data-name="Path 2741" d="M66.941,20.685q4.33-10.2,8.66-20.4l1.967.837-.507,1.2-.77-.33L67.454,22.808a10.626,10.626,0,0,0-.434-1.9c-.025-.076-.051-.15-.079-.225" transform="translate(5.489 0.023)" fill="#904231"/>
    <path id="Path_2742" data-name="Path 2742" d="M65.776,18.518Q69.587,9.543,73.4.567l1.839.78-.51,1.2-.641-.272L66.65,19.791A6.815,6.815,0,0,0,66.3,19.2a6.559,6.559,0,0,0-.523-.681" transform="translate(5.393 0.046)" fill="#904231"/>
    <path id="Path_2743" data-name="Path 2743" d="M64.228,17.11,70.682,1.905l.134-.315.254-.6.6.254.316.134,1,.424L72.475,3l-.716-.3L65.31,17.891l-.115-.1a7.308,7.308,0,0,0-.967-.681" transform="translate(5.266 0.081)" fill="#552c22"/>
    <path id="Path_2744" data-name="Path 2744" d="M62.535,16.291l5.987-14.1.133-.315.254-.6.6.253.315.134.924.393-.507,1.2L69.6,2.981,63.75,16.76l-.009,0a9.053,9.053,0,0,0-1.206-.466" transform="translate(5.127 0.104)" fill="#552c22"/>
  </g>
</svg>
