<?xml version="1.0" standalone="no"?>
<!DOCTYPE svg PUBLIC "-//W3C//DTD SVG 20010904//EN"
 "http://www.w3.org/TR/2001/REC-SVG-20010904/DTD/svg10.dtd">
<svg version="1.0" xmlns="http://www.w3.org/2000/svg"
 width="500.000000pt" height="500.000000pt" viewBox="0 0 500.000000 500.000000"
 preserveAspectRatio="xMidYMid meet">

<g transform="translate(0.000000,500.000000) scale(0.100000,-0.100000)"
fill="#000000" stroke="none">
<path fill="#107a7bff" d="M2431 4404 c-213 -57 -358 -277 -323 -490 12 -72 59 -179 91 -208 18
-17 22 -16 91 8 39 14 80 26 91 26 27 0 24 13 -9 37 -40 29 -83 114 -89 177
-11 107 49 211 153 262 48 24 63 26 130 22 67 -5 81 -9 132 -44 150 -104 155
-317 10 -430 l-28 -22 31 -6 c16 -3 59 -17 95 -32 63 -25 66 -25 85 -8 11 10
36 51 56 92 32 64 37 85 41 161 5 99 -12 176 -55 250 -100 173 -307 258 -502
205z"/>
<path fill="#107a7bff" d="M2075 3656 c-488 -120 -898 -429 -1103 -831 -81 -159 -130 -312 -154
-477 l-12 -88 -133 0 c-170 0 -213 -19 -213 -94 0 -38 10 -55 41 -71 42 -22
3956 -22 3998 0 48 25 56 86 17 132 -24 28 -25 28 -160 31 l-136 4 0 40 c0 60
-36 225 -71 325 -74 213 -190 394 -364 568 -140 141 -266 232 -445 321 -138
69 -430 168 -446 151 -2 -2 18 -18 45 -35 57 -37 143 -121 179 -175 20 -30 49
-50 136 -94 212 -106 391 -250 520 -418 159 -206 235 -387 270 -647 l5 -38
-1531 0 -1530 0 6 58 c4 31 16 94 26 139 91 390 401 747 807 928 79 36 105 53
131 87 56 72 94 107 170 159 82 55 77 57 -53 25z"/>
<path fill="#fdbc54ff" d="M2234 3446 c-121 -28 -195 -81 -234 -169 -25 -57 -21 -108 14 -159
24 -36 49 -46 71 -28 11 9 11 16 -1 45 -19 46 -17 82 5 132 38 82 144 130 267
120 109 -8 166 -58 166 -144 0 -114 -76 -185 -213 -200 -69 -7 -69 -8 -38 93
26 84 50 133 78 158 25 22 13 46 -23 46 -57 0 -107 -97 -166 -317 -22 -83 -52
-184 -66 -223 -28 -76 -25 -89 18 -90 26 0 42 32 83 163 l37 118 51 -3 c64 -4
82 -26 102 -133 17 -91 65 -198 100 -221 12 -8 37 -19 54 -24 26 -7 36 -5 52
11 26 26 24 38 -8 50 -66 25 -93 69 -129 207 -14 53 -29 101 -35 106 -16 17
-10 24 27 36 49 16 113 76 135 125 24 51 25 145 3 192 -44 92 -204 141 -350
109z"/>
<path fill="#107a7bff" d="M1786 3280 c-340 -174 -571 -451 -593 -710 -5 -60 -3 -68 19 -95 20
-22 34 -29 62 -29 54 0 85 35 96 110 25 180 152 344 386 502 60 40 61 42 67
94 4 30 16 80 26 111 11 31 19 57 18 57 -2 0 -38 -18 -81 -40z"/>
<path fill="#fdbc54ff" d="M2637 3098 c-54 -15 -101 -65 -116 -123 -21 -85 2 -140 113 -263 81
-91 102 -133 91 -190 -16 -83 -60 -123 -140 -124 -92 -2 -140 57 -140 172 0
74 0 75 -27 78 -24 3 -28 -1 -35 -35 -12 -60 -7 -145 10 -179 81 -156 359
-126 407 44 27 98 6 157 -101 277 -86 97 -99 121 -99 179 0 36 6 52 28 76 61
66 182 31 182 -54 0 -44 29 -65 54 -40 34 34 2 135 -54 167 -38 23 -122 30
-173 15z"/>
<path fill="#fdbc54ff" d="M1780 2063 c-34 -6 -60 -32 -60 -58 0 -28 15 -41 61 -49 54 -10 101
-45 127 -96 22 -42 23 -53 18 -175 -7 -167 -34 -297 -70 -334 l-27 -28 155
-146 c85 -81 156 -147 158 -147 3 0 53 54 112 120 72 81 129 157 173 233 151
256 205 308 452 431 166 83 280 121 407 136 125 14 148 32 108 88 -15 22 -17
22 -292 21 -339 0 -398 -6 -432 -40 -53 -53 -229 -189 -234 -181 -3 5 47 51
110 102 63 51 113 94 111 96 -11 11 -87 -28 -149 -77 -131 -104 -225 -149
-315 -149 -62 0 -81 15 -99 76 -17 61 -43 91 -109 129 -37 22 -147 57 -170 54
-5 -1 -21 -4 -35 -6z m1009 -90 c-35 -18 -55 -31 -44 -29 11 3 58 12 105 20
47 9 110 23 140 31 30 8 58 11 63 6 5 -5 -4 -11 -20 -14 -296 -63 -396 -88
-451 -116 -68 -34 -72 -36 -72 -20 0 13 322 168 334 161 5 -3 -20 -20 -55 -39z"/>
<path fill="#fdbc54ff" d="M1737 1282 l-37 -38 178 -177 178 -177 39 40 39 40 -174 175 c-96 96
-177 175 -180 175 -3 0 -23 -17 -43 -38z"/>
<path fill="#fdbc54ff" d="M1517 1142 l-107 -107 225 -225 225 -225 110 110 110 110 -222 222
c-123 123 -225 223 -228 223 -3 0 -54 -48 -113 -108z"/>
</g>
</svg>
